<?xml version="1.0" encoding="UTF-8" standalone="no"?>
<!DOCTYPE svg PUBLIC "-//W3C//DTD SVG 1.1//EN" "http://www.w3.org/Graphics/SVG/1.1/DTD/svg11.dtd">
<!-- Generated by Microsoft Visio, SVG Export LayerDefExample.svg Page-1 -->
<svg xmlns="http://www.w3.org/2000/svg" xmlns:xlink="http://www.w3.org/1999/xlink" xmlns:ev="http://www.w3.org/2001/xml-events"
		xmlns:v="http://schemas.microsoft.com/visio/2003/SVGExtensions/" width="8.38194in" height="2.51378in"
		viewBox="0 0 603.5 180.992" xml:space="preserve" color-interpolation-filters="sRGB" class="st12">
	<v:documentProperties v:langID="1033" v:viewMarkup="false">
		<v:userDefs>
			<v:ud v:nameU="msvSubprocessMaster" v:prompt="" v:val="VT4(Rectangle)"/>
			<v:ud v:nameU="msvNoAutoConnect" v:val="VT0(1):26"/>
		</v:userDefs>
	</v:documentProperties>

	<style type="text/css">
	<![CDATA[
		.st1 {stroke:#000000;stroke-dasharray:1.5,1.5;stroke-linecap:round;stroke-linejoin:round;stroke-width:0.5}
		.st2 {fill:#f09609;stroke:#ffffff;stroke-linecap:round;stroke-linejoin:round;stroke-width:0.5}
		.st3 {fill:#339933;stroke:#ffffff;stroke-linecap:round;stroke-linejoin:round;stroke-width:0.5}
		.st4 {fill:#1ba1e2;fill-opacity:0.49;stroke:#0070c0;stroke-linecap:round;stroke-linejoin:round;stroke-width:0.5}
		.st5 {stroke:#002060;stroke-dasharray:0.5,1;stroke-linecap:round;stroke-linejoin:round;stroke-width:0.5}
		.st6 {fill:#1ba1e2;stroke:none;stroke-linecap:round;stroke-linejoin:round;stroke-width:0.5}
		.st7 {fill:#1ba1e2;fill-opacity:0.5;stroke:#0070c0;stroke-linecap:round;stroke-linejoin:round;stroke-width:0.5}
		.st8 {fill:none;stroke:none;stroke-linecap:round;stroke-linejoin:round;stroke-width:0.5}
		.st9 {fill:#000000;font-family:Segoe UI;font-size:1.00001em}
		.st10 {font-size:1em}
		.st11 {fill:#000000;font-family:Segoe UI;font-size:0.833336em}
		.st12 {fill:none;fill-rule:evenodd;font-size:12px;overflow:visible;stroke-linecap:square;stroke-miterlimit:3}
	]]>
	</style>

	<g v:mID="0" v:index="1" v:groupContext="foregroundPage">
		<v:custProps>
			<v:cp v:nameU="AskOnDrop" v:lbl="Ask On Drop" v:type="3" v:format="&#34;" v:langID="1033" v:val="VT4(TRUE)"/>
		</v:custProps>
		<v:userDefs>
			<v:ud v:nameU="msvThemeOrder" v:val="VT0(0):26"/>
		</v:userDefs>
		<title>Page-1</title>
		<v:pageProperties v:drawingScale="1" v:pageScale="1" v:drawingUnits="0" v:shadowOffsetX="9" v:shadowOffsetY="-9"/>
		<v:layer v:name="Connector" v:index="0"/>
		<g id="shape118-1" v:mID="118" v:groupContext="shape" v:layerMember="0" transform="translate(435.209,-125.73)">
			<title>Dynamic connector.118</title>
			<path d="M0 189.37 L91.59 190.62" class="st1"/>
		</g>
		<g id="shape187-4" v:mID="187" v:groupContext="shape" v:layerMember="0" transform="translate(435.209,-117.356)">
			<title>Dynamic connector.187</title>
			<path d="M0 180.99 L91.59 240.52" class="st1"/>
		</g>
		<g id="shape6-7" v:mID="6" v:groupContext="shape" transform="translate(18.25,-32.2773)">
			<title>Square</title>
			<v:userDefs>
				<v:ud v:nameU="visVersion" v:val="VT0(15):26"/>
			</v:userDefs>
			<rect x="0" y="64.5547" width="116.438" height="116.438" class="st2"/>
		</g>
		<g id="shape10-9" v:mID="10" v:groupContext="shape" transform="translate(31.75,-109.639)">
			<title>Square.10</title>
			<v:userDefs>
				<v:ud v:nameU="visVersion" v:val="VT0(15):26"/>
			</v:userDefs>
			<rect x="0" y="153.992" width="27" height="27" class="st3"/>
		</g>
		<g id="group98-11" transform="translate(385.831,-55.6387)" v:mID="98" v:groupContext="group">
			<title>Sheet.98</title>
			<g id="group72-12" v:mID="72" v:groupContext="group">
				<title>Sheet.72</title>
				<g id="group73-13" transform="translate(0,-12.3445)" v:mID="73" v:groupContext="group">
					<title>Sheet.73</title>
					<g id="shape74-14" v:mID="74" v:groupContext="shape">
						<title>Square.18</title>
						<v:userDefs>
							<v:ud v:nameU="visVersion" v:val="VT0(15):26"/>
						</v:userDefs>
						<rect x="0" y="131.614" width="49.378" height="49.378" class="st4"/>
					</g>
					<g id="shape75-16" v:mID="75" v:groupContext="shape" transform="translate(23.1459,-10.8014)">
						<title>Square.26</title>
						<v:userDefs>
							<v:ud v:nameU="visVersion" v:val="VT0(15):26"/>
						</v:userDefs>
						<rect x="0" y="174.306" width="6.6866" height="6.6866" class="st4"/>
					</g>
				</g>
				<g id="shape76-18" v:mID="76" v:groupContext="shape" transform="translate(135.085,13.0525) rotate(36.8699)">
					<title>Sheet.76</title>
					<path d="M0 180.99 L5.14 180.99" class="st5"/>
				</g>
				<g id="shape77-21" v:mID="77" v:groupContext="shape" transform="translate(135.085,6.3659) rotate(36.8699)">
					<title>Sheet.77</title>
					<path d="M0 180.99 L5.14 180.99" class="st5"/>
				</g>
				<g id="group78-24" transform="translate(4.11483,-9.25837)" v:mID="78" v:groupContext="group">
					<title>Sheet.78</title>
					<g id="shape79-25" v:mID="79" v:groupContext="shape">
						<title>Square.18</title>
						<v:userDefs>
							<v:ud v:nameU="visVersion" v:val="VT0(15):26"/>
						</v:userDefs>
						<rect x="0" y="131.614" width="49.378" height="49.378" class="st4"/>
					</g>
					<g id="shape80-27" v:mID="80" v:groupContext="shape" transform="translate(23.1459,-10.8014)">
						<title>Square.26</title>
						<v:userDefs>
							<v:ud v:nameU="visVersion" v:val="VT0(15):26"/>
						</v:userDefs>
						<rect x="0" y="174.306" width="6.6866" height="6.6866" class="st4"/>
					</g>
				</g>
				<g id="shape81-29" v:mID="81" v:groupContext="shape" transform="translate(139.199,16.1386) rotate(36.8699)">
					<title>Sheet.81</title>
					<path d="M0 180.99 L10.29 180.99" class="st5"/>
				</g>
				<g id="shape82-32" v:mID="82" v:groupContext="shape" transform="translate(139.199,9.45203) rotate(36.8699)">
					<title>Sheet.82</title>
					<path d="M0 180.99 L10.29 180.99" class="st5"/>
				</g>
				<g id="group83-35" transform="translate(12.3445,-3.08612)" v:mID="83" v:groupContext="group">
					<title>Sheet.83</title>
					<g id="shape84-36" v:mID="84" v:groupContext="shape">
						<title>Square.18</title>
						<v:userDefs>
							<v:ud v:nameU="visVersion" v:val="VT0(15):26"/>
						</v:userDefs>
						<rect x="0" y="131.614" width="49.378" height="49.378" class="st4"/>
					</g>
					<g id="shape85-38" v:mID="85" v:groupContext="shape" transform="translate(23.1459,-10.8014)">
						<title>Square.26</title>
						<v:userDefs>
							<v:ud v:nameU="visVersion" v:val="VT0(15):26"/>
						</v:userDefs>
						<rect x="0" y="174.306" width="6.6866" height="6.6866" class="st4"/>
					</g>
				</g>
				<g id="shape86-40" v:mID="86" v:groupContext="shape" transform="translate(147.429,22.3109) rotate(36.8699)">
					<title>Sheet.86</title>
					<path d="M0 180.99 L5.14 180.99" class="st5"/>
				</g>
				<g id="shape87-43" v:mID="87" v:groupContext="shape" transform="translate(147.429,15.6243) rotate(36.8699)">
					<title>Sheet.87</title>
					<path d="M0 180.99 L5.14 180.99" class="st5"/>
				</g>
				<g id="group88-46" transform="translate(16.4593,2.84217E-014)" v:mID="88" v:groupContext="group">
					<title>Sheet.88</title>
					<g id="shape89-47" v:mID="89" v:groupContext="shape">
						<title>Square.18</title>
						<v:userDefs>
							<v:ud v:nameU="visVersion" v:val="VT0(15):26"/>
						</v:userDefs>
						<rect x="0" y="131.614" width="49.378" height="49.378" class="st4"/>
					</g>
					<g id="shape90-49" v:mID="90" v:groupContext="shape" transform="translate(23.1459,-10.8014)">
						<title>Square.26</title>
						<v:userDefs>
							<v:ud v:nameU="visVersion" v:val="VT0(15):26"/>
						</v:userDefs>
						<rect x="0" y="174.306" width="6.6866" height="6.6866" class="st4"/>
					</g>
				</g>
				<g id="group91-51" transform="translate(7.20096,-3.72907)" v:mID="91" v:groupContext="group">
					<title>Sheet.91</title>
					<g id="shape92-52" v:mID="92" v:groupContext="shape" transform="translate(184.078,180.135) rotate(90)">
						<title>Center Drag Circle</title>
						<v:userDefs>
							<v:ud v:nameU="visVersion" v:val="VT0(15):26"/>
						</v:userDefs>
						<path d="M-0.86 180.99 a0.857257 0.857257 0 1 1 1.71451 0 a0.857257 0.857257 0 1 1 -1.71451 0 Z"
								class="st6"/>
					</g>
					<g id="shape93-54" v:mID="93" v:groupContext="shape" transform="translate(180.992,177.135) rotate(90)">
						<title>Center Drag Circle.20</title>
						<v:userDefs>
							<v:ud v:nameU="visVersion" v:val="VT0(15):26"/>
						</v:userDefs>
						<path d="M-0.86 180.99 a0.857257 0.857257 0 0 1 1.71451 0 a0.857257 0.857257 0 0 1 -1.71451 0 Z"
								class="st6"/>
					</g>
					<g id="shape94-56" v:mID="94" v:groupContext="shape" transform="translate(182.535,178.635) rotate(90)">
						<title>Center Drag Circle.21</title>
						<v:userDefs>
							<v:ud v:nameU="visVersion" v:val="VT0(15):26"/>
						</v:userDefs>
						<path d="M-0.86 180.99 a0.857257 0.857257 0 0 1 1.71451 0 a0.857257 0.857257 0 1 1 -1.71451 0 Z"
								class="st6"/>
					</g>
				</g>
			</g>
			<g id="shape95-58" v:mID="95" v:groupContext="shape" transform="translate(22.7025,-7.23643)">
				<title>Square.95</title>
				<v:userDefs>
					<v:ud v:nameU="visVersion" v:val="VT0(15):26"/>
				</v:userDefs>
				<rect x="0" y="176.452" width="4.5405" height="4.5405" class="st3"/>
			</g>
		</g>
		<g id="group99-60" transform="translate(184.75,-18.25)" v:mID="99" v:groupContext="group">
			<title>Sheet.99</title>
			<g id="group69-61" v:mID="69" v:groupContext="group">
				<title>Sheet.69</title>
				<g id="group46-62" transform="translate(-4.79616E-014,-28.8984)" v:mID="46" v:groupContext="group">
					<title>Sheet.46</title>
					<g id="shape47-63" v:mID="47" v:groupContext="shape">
						<title>Square.18</title>
						<v:userDefs>
							<v:ud v:nameU="visVersion" v:val="VT0(15):26"/>
						</v:userDefs>
						<rect x="0" y="65.3984" width="115.594" height="115.594" class="st4"/>
					</g>
					<g id="shape48-65" v:mID="48" v:groupContext="shape" transform="translate(54.1846,-25.2861)">
						<title>Square.26</title>
						<v:userDefs>
							<v:ud v:nameU="visVersion" v:val="VT0(15):26"/>
						</v:userDefs>
						<rect x="0" y="165.339" width="15.6533" height="15.6533" class="st4"/>
					</g>
				</g>
				<g id="shape60-67" v:mID="60" v:groupContext="shape" transform="translate(170.607,-17.9861) rotate(36.8699)">
					<title>Sheet.60</title>
					<path d="M0 180.99 L12.04 180.99" class="st5"/>
				</g>
				<g id="shape61-70" v:mID="61" v:groupContext="shape" transform="translate(170.607,-33.6395) rotate(36.8699)">
					<title>Sheet.61</title>
					<path d="M0 180.99 L12.04 180.99" class="st5"/>
				</g>
				<g id="group52-73" transform="translate(9.63281,-21.6738)" v:mID="52" v:groupContext="group">
					<title>Sheet.52</title>
					<g id="shape53-74" v:mID="53" v:groupContext="shape">
						<title>Square.18</title>
						<v:userDefs>
							<v:ud v:nameU="visVersion" v:val="VT0(15):26"/>
						</v:userDefs>
						<rect x="0" y="65.3984" width="115.594" height="115.594" class="st4"/>
					</g>
					<g id="shape54-76" v:mID="54" v:groupContext="shape" transform="translate(54.1846,-25.2861)">
						<title>Square.26</title>
						<v:userDefs>
							<v:ud v:nameU="visVersion" v:val="VT0(15):26"/>
						</v:userDefs>
						<rect x="0" y="165.339" width="15.6533" height="15.6533" class="st4"/>
					</g>
				</g>
				<g id="shape62-78" v:mID="62" v:groupContext="shape" transform="translate(180.239,-10.7615) rotate(36.8699)">
					<title>Sheet.62</title>
					<path d="M0 180.99 L24.08 180.99" class="st5"/>
				</g>
				<g id="shape63-81" v:mID="63" v:groupContext="shape" transform="translate(180.239,-26.4148) rotate(36.8699)">
					<title>Sheet.63</title>
					<path d="M0 180.99 L24.08 180.99" class="st5"/>
				</g>
				<g id="group49-84" transform="translate(28.8984,-7.22461)" v:mID="49" v:groupContext="group">
					<title>Sheet.49</title>
					<g id="shape50-85" v:mID="50" v:groupContext="shape">
						<title>Square.18</title>
						<v:userDefs>
							<v:ud v:nameU="visVersion" v:val="VT0(15):26"/>
						</v:userDefs>
						<rect x="0" y="65.3984" width="115.594" height="115.594" class="st4"/>
					</g>
					<g id="shape51-87" v:mID="51" v:groupContext="shape" transform="translate(54.1846,-25.2861)">
						<title>Square.26</title>
						<v:userDefs>
							<v:ud v:nameU="visVersion" v:val="VT0(15):26"/>
						</v:userDefs>
						<rect x="0" y="165.339" width="15.6533" height="15.6533" class="st4"/>
					</g>
				</g>
				<g id="shape64-89" v:mID="64" v:groupContext="shape" transform="translate(199.505,3.6877) rotate(36.8699)">
					<title>Sheet.64</title>
					<path d="M0 180.99 L12.04 180.99" class="st5"/>
				</g>
				<g id="shape65-92" v:mID="65" v:groupContext="shape" transform="translate(199.505,-11.9656) rotate(36.8699)">
					<title>Sheet.65</title>
					<path d="M0 180.99 L12.04 180.99" class="st5"/>
				</g>
				<g id="group45-95" transform="translate(38.5313,-2.84217E-014)" v:mID="45" v:groupContext="group">
					<title>Sheet.45</title>
					<g id="shape39-96" v:mID="39" v:groupContext="shape">
						<title>Square.18</title>
						<v:userDefs>
							<v:ud v:nameU="visVersion" v:val="VT0(15):26"/>
						</v:userDefs>
						<rect x="0" y="65.3984" width="115.594" height="115.594" class="st4"/>
					</g>
					<g id="shape44-98" v:mID="44" v:groupContext="shape" transform="translate(54.1846,-25.2861)">
						<title>Square.26</title>
						<v:userDefs>
							<v:ud v:nameU="visVersion" v:val="VT0(15):26"/>
						</v:userDefs>
						<rect x="0" y="165.339" width="15.6533" height="15.6533" class="st4"/>
					</g>
				</g>
				<g id="group68-100" transform="translate(16.8574,-8.72974)" v:mID="68" v:groupContext="group">
					<title>Sheet.68</title>
					<g id="shape41-101" v:mID="41" v:groupContext="shape" transform="translate(188.217,178.985) rotate(90)">
						<title>Center Drag Circle</title>
						<v:userDefs>
							<v:ud v:nameU="visVersion" v:val="VT0(15):26"/>
						</v:userDefs>
						<path d="M-2.01 180.99 A2.00684 2.00684 0 0 1 2.01 180.99 A2.00684 2.00684 0 1 1 -2.01 180.99 Z"
								class="st6"/>
					</g>
					<g id="shape42-103" v:mID="42" v:groupContext="shape" transform="translate(180.992,171.961) rotate(90)">
						<title>Center Drag Circle.20</title>
						<v:userDefs>
							<v:ud v:nameU="visVersion" v:val="VT0(15):26"/>
						</v:userDefs>
						<path d="M-2.01 180.99 A2.00684 2.00684 0 0 1 2.01 180.99 A2.00684 2.00684 0 1 1 -2.01 180.99 Z"
								class="st6"/>
					</g>
					<g id="shape43-105" v:mID="43" v:groupContext="shape" transform="translate(184.604,175.473) rotate(90)">
						<title>Center Drag Circle.21</title>
						<v:userDefs>
							<v:ud v:nameU="visVersion" v:val="VT0(15):26"/>
						</v:userDefs>
						<path d="M-2.01 180.99 A2.00684 2.00684 0 0 1 2.01 180.99 A2.00684 2.00684 0 1 1 -2.01 180.99 Z"
								class="st6"/>
					</g>
				</g>
			</g>
			<g id="shape70-107" v:mID="70" v:groupContext="shape" transform="translate(52.9805,-89.1035)">
				<title>Square.70</title>
				<v:userDefs>
					<v:ud v:nameU="visVersion" v:val="VT0(15):26"/>
				</v:userDefs>
				<rect x="0" y="166.543" width="14.4492" height="14.4492" class="st3"/>
			</g>
		</g>
		<g id="shape28-109" v:mID="28" v:groupContext="shape" v:layerMember="0" transform="translate(45.25,-138.221)">
			<title>Dynamic connector</title>
			<path d="M0 182.57 L199.71 197.41" class="st1"/>
		</g>
		<g id="shape29-112" v:mID="29" v:groupContext="shape" v:layerMember="0" transform="translate(45.25,-117.496)">
			<title>Dynamic connector.29</title>
			<path d="M0 188.85 L199.71 191.13" class="st1"/>
		</g>
		<g id="shape96-115" v:mID="96" v:groupContext="shape" v:layerMember="0" transform="translate(285.292,-43.5361)">
			<title>Dynamic connector.96</title>
			<path d="M0 180.99 L125.51 161.65" class="st1"/>
		</g>
		<g id="shape97-118" v:mID="97" v:groupContext="shape" v:layerMember="0" transform="translate(285.292,-54.3025)">
			<title>Dynamic connector.97</title>
			<path d="M0 176.11 L125.51 167.88" class="st1"/>
		</g>
		<g id="group115-121" transform="translate(526.75,-51.1387)" v:mID="115" v:groupContext="group">
			<title>Sheet.115</title>
			<g id="shape100-122" v:mID="100" v:groupContext="shape" transform="translate(-97.5919,-31.6023) rotate(-34.7891)">
				<title>Center Drag Circle</title>
				<v:userDefs>
					<v:ud v:nameU="visVersion" v:val="VT0(15):26"/>
				</v:userDefs>
				<path d="M-5.67 180.99 A5.67463 5.67463 0 0 1 5.67 180.99 A5.67463 5.67463 0 1 1 -5.67 180.99 Z" class="st7"/>
			</g>
			<g id="shape101-124" v:mID="101" v:groupContext="shape" transform="translate(-97.5919,-17.0326) rotate(-34.7891)">
				<title>Center Drag Circle.101</title>
				<v:userDefs>
					<v:ud v:nameU="visVersion" v:val="VT0(15):26"/>
				</v:userDefs>
				<path d="M-5.67 180.99 A5.67463 5.67463 0 0 1 5.67 180.99 A5.67463 5.67463 0 1 1 -5.67 180.99 Z" class="st7"/>
			</g>
			<g id="shape103-126" v:mID="103" v:groupContext="shape" transform="translate(-97.5919,12.1067) rotate(-34.7891)">
				<title>Center Drag Circle.103</title>
				<v:userDefs>
					<v:ud v:nameU="visVersion" v:val="VT0(15):26"/>
				</v:userDefs>
				<path d="M-5.67 180.99 A5.67463 5.67463 0 0 1 5.67 180.99 A5.67463 5.67463 0 1 1 -5.67 180.99 Z" class="st7"/>
			</g>
			<g id="shape104-128" v:mID="104" v:groupContext="shape" transform="translate(-97.5919,26.6764) rotate(-34.7891)">
				<title>Center Drag Circle.104</title>
				<v:userDefs>
					<v:ud v:nameU="visVersion" v:val="VT0(15):26"/>
				</v:userDefs>
				<path d="M-5.67 180.99 A5.67463 5.67463 0 0 1 5.67 180.99 A5.67463 5.67463 0 1 1 -5.67 180.99 Z" class="st7"/>
			</g>
			<g id="group111-130" transform="translate(5.67463,-31.9648)" v:mID="111" v:groupContext="group">
				<title>Sheet.111</title>
				<g id="shape112-131" v:mID="112" v:groupContext="shape" transform="translate(181.013,180.223) rotate(90)">
					<title>Center Drag Circle.107</title>
					<v:userDefs>
						<v:ud v:nameU="visVersion" v:val="VT0(15):26"/>
					</v:userDefs>
					<path d="M-0.77 180.99 a0.769376 0.769376 0 0 1 1.53875 0 a0.769376 0.769376 0 1 1 -1.53875 0 Z" class="st6"/>
				</g>
				<g id="shape113-133" v:mID="113" v:groupContext="shape" transform="translate(180.992,175.945) rotate(90)">
					<title>Center Drag Circle.20</title>
					<v:userDefs>
						<v:ud v:nameU="visVersion" v:val="VT0(15):26"/>
					</v:userDefs>
					<path d="M-0.77 180.99 a0.769376 0.769376 0 0 1 1.53875 0 a0.769376 0.769376 0 1 1 -1.53875 0 Z" class="st6"/>
				</g>
				<g id="shape114-135" v:mID="114" v:groupContext="shape" transform="translate(180.992,178.084) rotate(90)">
					<title>Center Drag Circle.21</title>
					<v:userDefs>
						<v:ud v:nameU="visVersion" v:val="VT0(15):26"/>
					</v:userDefs>
					<path d="M-0.77 180.99 a0.769376 0.769376 0 0 1 1.53875 0 a0.769376 0.769376 0 1 1 -1.53875 0 Z" class="st6"/>
				</g>
			</g>
		</g>
		<g id="shape116-137" v:mID="116" v:groupContext="shape" v:layerMember="0" transform="translate(451.669,-47.7468)">
			<title>Dynamic connector.116</title>
			<path d="M0 173.07 L75.13 170.91" class="st1"/>
		</g>
		<g id="shape117-140" v:mID="117" v:groupContext="shape" v:layerMember="0" transform="translate(451.669,-55.6669)">
			<title>Dynamic connector.117</title>
			<path d="M0 180.99 L75.13 120.55" class="st1"/>
		</g>
		<g id="shape214-143" v:mID="214" v:groupContext="shape" transform="translate(22.75,-64.6387)">
			<title>Sheet.214</title>
			<desc>Input 3x32x32</desc>
			<v:textBlock v:margins="rect(4,4,4,4)"/>
			<v:textRect cx="54" cy="167.492" width="108" height="27"/>
			<rect x="0" y="153.992" width="108" height="27" class="st8"/>
			<text x="40.05" y="163.89" class="st9" v:langID="1033"><v:paragraph v:horizAlign="1"/><v:tabList/>Input<v:newlineChar/><tspan
						x="32.32" dy="1.2em" class="st10">3</tspan>x32x32</text>		</g>
		<g id="shape215-147" v:mID="215" v:groupContext="shape" transform="translate(180.25,-19.6387)">
			<title>Sheet.215</title>
			<desc>x16</desc>
			<v:textBlock v:margins="rect(4,4,4,4)"/>
			<v:textRect cx="13.5" cy="171.992" width="27" height="18"/>
			<rect x="0" y="162.992" width="27" height="18" class="st8"/>
			<text x="5.81" y="174.99" class="st11" v:langID="1033"><v:paragraph v:horizAlign="1"/><v:tabList/>x16</text>		</g>
		<g id="shape216-150" v:mID="216" v:groupContext="shape" transform="translate(238.75,-91.6387)">
			<title>Sheet.216</title>
			<desc>Conv 7x7</desc>
			<v:textBlock v:margins="rect(4,4,4,4)"/>
			<v:textRect cx="54" cy="167.492" width="108" height="27"/>
			<rect x="0" y="153.992" width="108" height="27" class="st8"/>
			<text x="40.5" y="163.89" class="st9" v:langID="1033"><v:paragraph v:horizAlign="1"/><v:tabList/>Conv<v:newlineChar/><tspan
						x="44.78" dy="1.2em" class="st10">7</tspan>x7</text>		</g>
		<g id="shape217-154" v:mID="217" v:groupContext="shape" transform="translate(373.75,-69.1387)">
			<title>Sheet.217</title>
			<desc>Pool 2x2</desc>
			<v:textBlock v:margins="rect(4,4,4,4)"/>
			<v:textRect cx="54" cy="167.492" width="108" height="27"/>
			<rect x="0" y="153.992" width="108" height="27" class="st8"/>
			<text x="42.16" y="163.89" class="st9" v:langID="1033"><v:paragraph v:horizAlign="1"/><v:tabList/>Pool<v:newlineChar/><tspan
						x="44.78" dy="1.2em" class="st10">2</tspan>x2</text>		</g>
		<g id="shape218-158" v:mID="218" v:groupContext="shape" transform="translate(477.25,-132.139)">
			<title>Sheet.218</title>
			<desc>Dense 300</desc>
			<v:textBlock v:margins="rect(4,4,4,4)"/>
			<v:textRect cx="54" cy="167.492" width="108" height="27"/>
			<rect x="0" y="153.992" width="108" height="27" class="st8"/>
			<text x="37.58" y="163.89" class="st9" v:langID="1033"><v:paragraph v:horizAlign="1"/><v:tabList/>Dense<v:newlineChar/><tspan
						x="44.3" dy="1.2em" class="st10">300</tspan></text>		</g>
	</g>
</svg>
